<?xml version="1.0" standalone="no"?>
<!DOCTYPE svg PUBLIC "-//W3C//DTD SVG 20010904//EN"
 "http://www.w3.org/TR/2001/REC-SVG-20010904/DTD/svg10.dtd">
<svg version="1.0" xmlns="http://www.w3.org/2000/svg"
 width="261.000000pt" height="261.000000pt" viewBox="0 0 261.000000 261.000000"
 preserveAspectRatio="xMidYMid meet">
<metadata>
Created by potrace 1.14, written by Peter Selinger 2001-2017
</metadata>
<g transform="translate(0.000000,261.000000) scale(0.100000,-0.100000)"
fill="#000000" stroke="none">
<path d="M923 2296 c-25 -22 -28 -31 -31 -103 -4 -78 -4 -80 -28 -75 -33 6
-81 -15 -103 -47 -28 -39 -250 -487 -314 -631 -160 -364 -265 -730 -270 -941
-2 -81 15 -112 84 -147 36 -19 56 -23 108 -20 55 4 67 8 87 32 35 40 32 85
-12 141 l-35 47 11 91 c37 318 149 639 383 1102 l76 150 0 -120 c1 -125 21
-346 47 -500 25 -152 95 -297 192 -403 31 -34 46 -42 73 -42 45 0 130 51 267
159 60 47 157 124 217 171 131 102 253 221 359 350 43 52 82 99 87 104 22 24
-30 -151 -99 -335 -29 -75 -58 -165 -66 -200 -18 -77 -64 -468 -67 -559 -2
-99 -1 -108 21 -130 41 -41 161 -14 208 45 21 27 22 36 21 234 -3 264 8 326
111 646 57 177 180 671 180 722 0 36 -6 50 -29 74 -25 24 -38 29 -80 29 -57 0
-50 6 -193 -181 -308 -406 -441 -558 -583 -672 -93 -74 -289 -197 -314 -197
-16 0 -88 158 -100 219 -23 110 -33 353 -21 483 22 227 24 408 7 450 -31 74
-136 103 -194 54z"/>
</g>
</svg>
