<?xml version="1.0" standalone="no"?>
<!DOCTYPE svg PUBLIC "-//W3C//DTD SVG 20010904//EN"
 "http://www.w3.org/TR/2001/REC-SVG-20010904/DTD/svg10.dtd">
<svg version="1.0" xmlns="http://www.w3.org/2000/svg"
 width="700.000000pt" height="700.000000pt" viewBox="0 0 700.000000 700.000000"
 preserveAspectRatio="xMidYMid meet">
<metadata>
Created by potrace 1.14, written by Peter Selinger 2001-2017
</metadata>
<g transform="translate(0.000000,700.000000) scale(0.100000,-0.100000)"
fill="#000000" stroke="none">
<path d="M1859 6061 c-75 -41 -215 -219 -351 -444 -130 -217 -362 -661 -513
-982 -62 -132 -122 -261 -145 -310 -97 -216 -165 -368 -205 -460 -26 -60 -56
-130 -67 -155 -10 -25 -24 -56 -30 -70 -6 -14 -14 -33 -19 -42 -5 -9 -28 -65
-53 -125 -64 -158 -195 -473 -211 -508 -29 -64 -195 -485 -195 -494 0 -6 -6
-25 -14 -43 -22 -51 -27 -64 -44 -124 -14 -49 -9 -289 8 -354 16 -65 68 -130
128 -163 60 -33 75 -37 163 -44 85 -7 125 13 220 110 77 77 240 288 267 343 9
19 19 34 24 34 4 0 8 4 8 10 0 5 11 33 24 62 22 51 43 115 136 418 23 74 45
146 50 160 5 14 25 79 46 145 87 286 172 522 239 669 14 30 25 57 25 61 0 33
307 595 325 595 2 0 33 -91 70 -202 81 -248 170 -499 211 -593 7 -16 31 -75
54 -130 198 -473 412 -771 607 -845 196 -74 561 82 1153 493 126 88 549 403
565 421 6 6 39 33 75 61 61 47 98 77 124 100 18 16 216 186 275 235 60 50 280
238 326 279 17 14 102 87 190 161 88 74 165 139 171 145 6 5 33 28 59 50 27
22 53 45 59 50 6 6 54 46 106 90 52 44 100 84 106 90 6 5 33 28 60 50 27 22
66 57 87 78 44 44 57 41 38 -6 -12 -30 -159 -505 -166 -537 -3 -15 -129 -435
-190 -635 -18 -60 -59 -195 -90 -300 -31 -104 -83 -280 -116 -390 -33 -110
-69 -231 -80 -270 -11 -38 -24 -81 -29 -95 -5 -14 -20 -63 -34 -110 -14 -47
-69 -229 -122 -405 -53 -176 -100 -333 -104 -350 -22 -78 -51 -176 -70 -229
-55 -160 3 -354 154 -509 98 -101 143 -122 266 -121 187 1 313 71 386 216 14
28 28 58 30 67 24 92 34 161 36 241 2 89 -10 328 -17 340 -15 27 -26 416 -12
476 38 172 291 795 560 1384 14 30 82 183 152 340 70 157 138 309 151 338 99
217 255 600 274 670 21 82 7 223 -35 348 -42 122 -142 283 -225 362 -115 110
-276 149 -430 104 -157 -46 -399 -167 -720 -360 -166 -100 -480 -301 -506
-324 -11 -10 -23 -18 -27 -18 -4 0 -29 -15 -55 -33 -26 -18 -112 -78 -192
-132 -80 -54 -233 -162 -340 -238 -107 -77 -215 -154 -240 -172 -25 -17 -94
-67 -155 -111 -60 -44 -121 -87 -135 -97 -14 -10 -57 -41 -96 -70 -40 -29 -82
-59 -94 -67 -12 -8 -40 -28 -63 -45 -356 -259 -803 -573 -808 -567 -4 4 -10
43 -14 87 -4 44 -8 91 -10 105 -2 14 -7 57 -10 95 -3 39 -8 86 -10 105 -3 19
-7 62 -10 95 -11 116 -15 157 -30 280 -3 28 -8 70 -10 95 -3 25 -7 56 -10 70
-3 14 -7 43 -10 65 -12 109 -63 394 -85 475 -5 19 -11 46 -14 60 -3 14 -10 41
-16 60 -5 19 -12 46 -15 60 -2 14 -23 81 -46 149 -108 330 -264 557 -444 649
-96 49 -220 63 -276 33z"/>
</g>
</svg>
